{"title":"The Warriors Way 2010 PPVRiP XviD - iLLUSiON","uid":6212863,"size":1109967059,"categoryP":"video","categoryS":"movies","magnet":"?xt=urn:btih:2406bf2b72b5a01d2dec39dc023f1c77004da6e4&amp;dn=The+Warriors+Way+2010+PPVRiP+XviD+-+iLLUSiON&amp;tr=udp%3A%2F%2Ftracker.openbittorrent.com%3A80&amp;tr=udp%3A%2F%2Fopen.demonii.com%3A1337&amp;tr=udp%3A%2F%2Ftracker.coppersurfer.tk%3A6969&amp;tr=udp%3A%2F%2Fexodus.desync.com%3A6969","seeders":0,"leechers":1,"uploader":"hiest","files":-1,"time":1299052418,"description":"\n   #       #       #     #  #####    ####### #     # \n # #       #       #     # #     # # #     # ##    # \n # #       #       #     # #       # #     # # #   # \n # #       #       #     #  #####  # #     # #  #  # \n # #       #       #     #       # # #     # #   # # \n # #       #       #     # #     # # #     # #    ## \n # ####### #######  #####   #####  # ####### #     # \n                                                     \n\nMovie Info\nPlot: A warrior-assassin is forced to hide in a small town in the American Badlands after refusing a mission. \nIMDB: http://www.imdb.com/title/tt1032751/\nIMDB Rating: 6.3\nTrailer:\n\n\n\nGeneral Info\nSize: 1.01GB\nFormat: AVI\nRuntime: 1:38:51\n\n\n\nSources\nVideo - The Warriors Way (2010) PPVRIP IFLIX\nAudio - The Warriors Way (2010) PPVRIP IFLIX\n(THANKS)\n\n\n\nVideo Info\nID : 0\nFormat : MPEG-4 Visual\nFormat profile : Advanced Simple@L5\nFormat settings, BVOP : Yes\nFormat settings, QPel : No\nFormat settings, GMC : No warppoints\nFormat settings, Matrix : Default (H.263)\nMuxing mode : Packed bitstream\nCodec ID : XVID\nCodec ID/Hint : XviD\nDuration : 1h 38mn\nBit rate : 1 327 Kbps\nWidth : 640 pixels\nHeight : 368 pixels\nDisplay aspect ratio : 16:9\nFrame rate : 29.970 fps\nColor space : YUV\nChroma subsampling : 4:2:0\nBit depth : 8 bits\nScan type : Progressive\nCompression mode : Lossy\nBits/(Pixel*Frame) : 0.188\nStream size : 938 MiB (90%)\nWriting library : XviD 1.0.3 (UTC 2004-12-20)\n\n\n\nAudio Info\nID : 1\nFormat : MPEG Audio\nFormat version : Version 1\nFormat profile : Layer 3\nMode : Joint stereo\nMode extension : MS Stereo\nCodec ID : 55\nCodec ID/Hint : MP3\nDuration : 1h 38mn\nBit rate mode : Constant\nBit rate : 128 Kbps\nChannel(s) : 2 channels\nSampling rate : 44.1 KHz\nCompression mode : Lossy\nStream size : 90.3 MiB (9%)\nAlignment : Split accross interleaves\nInterleave, duration : 33 ms (1.00 video frame)\nInterleave, preload duration : 500 ms\n\n\nEncoders Notes\nI made an avs script to crop, resize &amp; sharpen.\nI dropped that into vdubmod.\nThier i denoised, lowered the brightness &amp; saturation.\nThen i increased the contrast &amp; changed the colors with a RGB EQ.\nAfter encoding, i watched it on a 52inch TV,\nits prety good, deffinatley watchable.\nThe black box in the corner is annoying but you get use to it.\nThe colors are off, i tried my best but there still not great.\nThe DVD is due on the 28th March.\nDownload the sample first to check that your happy with the quality.\nEnjoy...\n\n\nI am looking for;\nCammers, Cams, Screeners (any type), Cam audio, Line audio, \nUn-released R6's R5's R4's R2's R1's, \nA 25GB+ FTP server, A Windows Server\n&amp; a syncer. \nIf you can provide any of these please\ncontact me at &lt;a class=&quot;__cf_email__&quot; href=&quot;/cdn-cgi/l/email-protection&quot; data-cfemail=&quot;472e2b2b32342e2829072f32342f2a262e2b692a22&quot;&gt;[email&amp;#160;protected]&lt;/a&gt;&lt;script cf-hash='f9e31' type=&quot;text/javascript&quot;&gt;\n/* &lt;![CDATA[ */!function(){try{var t=&quot;currentScript&quot;in document?document.currentScript:function(){for(var t=document.getElementsByTagName(&quot;script&quot;),e=t.length;e--;)if(t[e].getAttribute(&quot;cf-hash&quot;))return t[e]}();if(t&amp;&amp;t.previousSibling){var e,r,n,i,c=t.previousSibling,a=c.getAttribute(&quot;data-cfemail&quot;);if(a){for(e=&quot;&quot;,r=parseInt(a.substr(0,2),16),n=2;a.length-n;n+=2)i=parseInt(a.substr(n,2),16)^r,e+=String.fromCharCode(i);e=document.createTextNode(e),c.parentNode.replaceChild(e,c)}}}catch(u){}}();/* ]]&gt; */&lt;/script&gt;\n\n\n   #       #       #     #  #####    ####### #     # \n # #       #       #     # #     # # #     # ##    # \n # #       #       #     # #       # #     # # #   # \n # #       #       #     #  #####  # #     # #  #  # \n # #       #       #     #       # # #     # #   # # \n # #       #       #     # #     # # #     # #    ## \n # ####### #######  #####   #####  # ####### #     # \n                                                     ","torrent":{"xt":"urn:btih:2406bf2b72b5a01d2dec39dc023f1c77004da6e4","amp;dn":"The+Warriors+Way+2010+PPVRiP+XviD+-+iLLUSiON","amp;tr":["udp%3A%2F%2Ftracker.openbittorrent.com%3A80","udp%3A%2F%2Fopen.demonii.com%3A1337","udp%3A%2F%2Ftracker.coppersurfer.tk%3A6969","udp%3A%2F%2Fexodus.desync.com%3A6969"],"infoHash":"2406bf2b72b5a01d2dec39dc023f1c77004da6e4","infoHashBuffer":{"type":"Buffer","data":[36,6,191,43,114,181,160,29,45,236,57,220,2,63,28,119,0,77,166,228]},"announce":[],"urlList":[]}}